# xmcd
#
# Track frame offsets:
#	150
#	24912
#	44362
#	62362
#	82925
#	107297
#	126325
#	150737
#	172975
#	196050
#	213422
#	227850
#	244535
#	263750
#	296307
#	314465
#
# Disc length: 4457
#
# Revision: 4
# Processed by: cddbd v1.5.1PL0 Copyright (c) Steve Scherf et al.
# Submitted via: Grip 2.94
# Normalized: r3:DSETVAR1,TDELIM( - )
#
DISCID=c6116710
DTITLE=Various Artist - Munich City Nights - Vol. 34
DYEAR=1900
DGENRE=
TTITLE0=CAMEL - Vopos
TTITLE1=AXXIS - Stay Don´t Leave Me
TTITLE2=BROWN, SAM - Stop
TTITLE3=SARAYA - Gypsy Child
TTITLE4=EVENRUDE, OLE - Popaganda
TTITLE5=SEXTON, CHARLIE - Long Cool Wowan
TTITLE6=TRAVELING WILBURYS - Tweeter And The Monkeyman
TTITLE7=L.R.B. - Blind Eyes
TTITLE8=RETURN - Life Must Go On
TTITLE9=RICHARD, CLIFF - La Gonave
TTITLE10=OPUS - Keep Your Mind
TTITLE11=LINNEY, MIKE - Turn The Musik On
TTITLE12=CARLISLE, BELINDA - Big Scary Animal
TTITLE13=BEAUVOIR, JEAN - Feel The Heat (Dance Version)
TTITLE14=PINK CREAM 69 - Do You Like It Like That
TTITLE15=EVENRUDE, OLE - 25 Years Of Rock'n Roll
EXTD=
EXTT0=
EXTT1=
EXTT2=
EXTT3=
EXTT4=
EXTT5=
EXTT6=
EXTT7=
EXTT8=
EXTT9=
EXTT10=
EXTT11=
EXTT12=
EXTT13=
EXTT14=
EXTT15=
PLAYORDER=
